<mxfile host="app.diagrams.net" agent="Mozilla/5.0 (X11; Linux x86_64) AppleWebKit/537.36 (KHTML, like Gecko) Chrome/135.0.0.0 Safari/537.36" version="26.2.10">
  <diagram id="rNU5YlOjHarIzLZ8ZJUE" name="Página-2">
    <mxGraphModel dx="2254" dy="1959" grid="1" gridSize="10" guides="1" tooltips="1" connect="1" arrows="1" fold="1" page="1" pageScale="1" pageWidth="827" pageHeight="1169" math="0" shadow="0">
      <root>
        <mxCell id="0" />
        <mxCell id="1" parent="0" />
        <mxCell id="NvFsiqOb6EjPx9XSdER_-1" value="Scrum" style="swimlane;html=1;startSize=23;fontStyle=0;collapsible=0;horizontal=1;swimlaneLine=1;strokeWidth=2;swimlaneFillColor=#ffffff;whiteSpace=wrap;rotation=-90;" parent="1" vertex="1">
          <mxGeometry x="-590" y="-280" width="772" height="882.5" as="geometry" />
        </mxCell>
        <mxCell id="NvFsiqOb6EjPx9XSdER_-2" style="edgeStyle=orthogonalEdgeStyle;rounded=0;orthogonalLoop=1;jettySize=auto;html=1;" parent="NvFsiqOb6EjPx9XSdER_-1" source="NvFsiqOb6EjPx9XSdER_-3" target="NvFsiqOb6EjPx9XSdER_-9" edge="1">
          <mxGeometry relative="1" as="geometry" />
        </mxCell>
        <mxCell id="NvFsiqOb6EjPx9XSdER_-3" value="&lt;p class=&quot;p1&quot;&gt;&lt;span style=&quot;background-color: transparent; color: light-dark(rgb(0, 0, 0), rgb(255, 255, 255));&quot;&gt;Atualizar Sprint Backlog com progresso&lt;/span&gt;&lt;/p&gt;" style="points=[[0.25,0,0],[0.5,0,0],[0.75,0,0],[1,0.25,0],[1,0.5,0],[1,0.75,0],[0.75,1,0],[0.5,1,0],[0.25,1,0],[0,0.75,0],[0,0.5,0],[0,0.25,0]];shape=mxgraph.bpmn.task2;whiteSpace=wrap;rectStyle=rounded;size=10;html=1;container=1;expand=0;collapsible=0;taskMarker=abstract;" parent="NvFsiqOb6EjPx9XSdER_-1" vertex="1">
          <mxGeometry x="626" y="500" width="146" height="60" as="geometry" />
        </mxCell>
        <mxCell id="NvFsiqOb6EjPx9XSdER_-4" style="edgeStyle=orthogonalEdgeStyle;rounded=0;orthogonalLoop=1;jettySize=auto;html=1;exitX=0.5;exitY=1;exitDx=0;exitDy=0;exitPerimeter=0;" parent="NvFsiqOb6EjPx9XSdER_-1" source="NvFsiqOb6EjPx9XSdER_-5" target="NvFsiqOb6EjPx9XSdER_-12" edge="1">
          <mxGeometry relative="1" as="geometry">
            <mxPoint x="699" y="288.94" as="targetPoint" />
          </mxGeometry>
        </mxCell>
        <mxCell id="NvFsiqOb6EjPx9XSdER_-5" value="&lt;p class=&quot;p1&quot;&gt;Verificar se todas as tarefas foram concluídas&lt;/p&gt;" style="points=[[0.25,0,0],[0.5,0,0],[0.75,0,0],[1,0.25,0],[1,0.5,0],[1,0.75,0],[0.75,1,0],[0.5,1,0],[0.25,1,0],[0,0.75,0],[0,0.5,0],[0,0.25,0]];shape=mxgraph.bpmn.task2;whiteSpace=wrap;rectStyle=rounded;size=10;html=1;container=1;expand=0;collapsible=0;taskMarker=abstract;" parent="NvFsiqOb6EjPx9XSdER_-1" vertex="1">
          <mxGeometry x="644" y="192.44" width="110" height="60" as="geometry" />
        </mxCell>
        <mxCell id="NvFsiqOb6EjPx9XSdER_-6" style="edgeStyle=orthogonalEdgeStyle;rounded=0;orthogonalLoop=1;jettySize=auto;html=1;exitX=1;exitY=0.5;exitDx=0;exitDy=0;exitPerimeter=0;entryX=0;entryY=0.5;entryDx=0;entryDy=0;entryPerimeter=0;" parent="NvFsiqOb6EjPx9XSdER_-1" source="NvFsiqOb6EjPx9XSdER_-8" target="NvFsiqOb6EjPx9XSdER_-21" edge="1">
          <mxGeometry relative="1" as="geometry">
            <mxPoint x="89" y="344" as="targetPoint" />
          </mxGeometry>
        </mxCell>
        <mxCell id="NvFsiqOb6EjPx9XSdER_-7" style="edgeStyle=orthogonalEdgeStyle;rounded=0;orthogonalLoop=1;jettySize=auto;html=1;entryX=0.5;entryY=0;entryDx=0;entryDy=0;entryPerimeter=0;exitX=1;exitY=0.5;exitDx=0;exitDy=0;exitPerimeter=0;" parent="NvFsiqOb6EjPx9XSdER_-1" source="NvFsiqOb6EjPx9XSdER_-16" target="NvFsiqOb6EjPx9XSdER_-8" edge="1">
          <mxGeometry relative="1" as="geometry">
            <mxPoint x="140" y="140" as="sourcePoint" />
          </mxGeometry>
        </mxCell>
        <mxCell id="NvFsiqOb6EjPx9XSdER_-8" value="&lt;p class=&quot;p1&quot;&gt;&lt;span style=&quot;background-color: transparent; color: light-dark(rgb(0, 0, 0), rgb(255, 255, 255));&quot;&gt;Planejar sprint e realizar a retrospectiva&lt;/span&gt;&lt;/p&gt;" style="points=[[0.25,0,0],[0.5,0,0],[0.75,0,0],[1,0.25,0],[1,0.5,0],[1,0.75,0],[0.75,1,0],[0.5,1,0],[0.25,1,0],[0,0.75,0],[0,0.5,0],[0,0.25,0]];shape=mxgraph.bpmn.task2;whiteSpace=wrap;rectStyle=rounded;size=10;html=1;container=1;expand=0;collapsible=0;taskMarker=abstract;" parent="NvFsiqOb6EjPx9XSdER_-1" vertex="1">
          <mxGeometry x="30" y="184" width="140" height="66" as="geometry" />
        </mxCell>
        <mxCell id="NvFsiqOb6EjPx9XSdER_-9" value="" style="points=[[0.145,0.145,0],[0.5,0,0],[0.855,0.145,0],[1,0.5,0],[0.855,0.855,0],[0.5,1,0],[0.145,0.855,0],[0,0.5,0]];shape=mxgraph.bpmn.event;html=1;verticalLabelPosition=bottom;labelBackgroundColor=#ffffff;verticalAlign=top;align=center;perimeter=ellipsePerimeter;outlineConnect=0;aspect=fixed;outline=standard;symbol=general;fillColor=#f8cecc;strokeColor=#b85450;" parent="NvFsiqOb6EjPx9XSdER_-1" vertex="1">
          <mxGeometry x="679" y="630" width="40" height="40" as="geometry" />
        </mxCell>
        <mxCell id="NvFsiqOb6EjPx9XSdER_-10" value="Fim" style="text;strokeColor=none;align=center;fillColor=none;html=1;verticalAlign=middle;whiteSpace=wrap;rounded=0;" parent="NvFsiqOb6EjPx9XSdER_-1" vertex="1">
          <mxGeometry x="669" y="670" width="60" height="30" as="geometry" />
        </mxCell>
        <mxCell id="NvFsiqOb6EjPx9XSdER_-11" style="edgeStyle=orthogonalEdgeStyle;rounded=0;orthogonalLoop=1;jettySize=auto;html=1;entryX=0;entryY=0.5;entryDx=0;entryDy=0;entryPerimeter=0;" parent="NvFsiqOb6EjPx9XSdER_-1" target="NvFsiqOb6EjPx9XSdER_-5" edge="1">
          <mxGeometry relative="1" as="geometry">
            <mxPoint x="569" y="222.44" as="sourcePoint" />
          </mxGeometry>
        </mxCell>
        <mxCell id="NvFsiqOb6EjPx9XSdER_-12" value="&lt;p class=&quot;p1&quot;&gt;Foram concluídas?&lt;/p&gt;" style="text;strokeColor=none;align=center;fillColor=none;html=1;verticalAlign=middle;whiteSpace=wrap;rounded=0;" parent="NvFsiqOb6EjPx9XSdER_-1" vertex="1">
          <mxGeometry x="669" y="287" width="60" height="57" as="geometry" />
        </mxCell>
        <mxCell id="NvFsiqOb6EjPx9XSdER_-13" style="edgeStyle=orthogonalEdgeStyle;rounded=0;orthogonalLoop=1;jettySize=auto;html=1;exitX=0.5;exitY=1;exitDx=0;exitDy=0;entryX=0.5;entryY=0;entryDx=0;entryDy=0;entryPerimeter=0;" parent="NvFsiqOb6EjPx9XSdER_-1" source="NvFsiqOb6EjPx9XSdER_-12" target="NvFsiqOb6EjPx9XSdER_-27" edge="1">
          <mxGeometry relative="1" as="geometry" />
        </mxCell>
        <mxCell id="NvFsiqOb6EjPx9XSdER_-14" value="Não" style="text;strokeColor=none;align=center;fillColor=none;html=1;verticalAlign=middle;whiteSpace=wrap;rounded=0;" parent="NvFsiqOb6EjPx9XSdER_-1" vertex="1">
          <mxGeometry x="630" y="359" width="60" height="57" as="geometry" />
        </mxCell>
        <mxCell id="NvFsiqOb6EjPx9XSdER_-15" value="Sim" style="text;strokeColor=none;align=center;fillColor=none;html=1;verticalAlign=middle;whiteSpace=wrap;rounded=0;" parent="NvFsiqOb6EjPx9XSdER_-1" vertex="1">
          <mxGeometry x="694" y="413.75" width="60" height="55" as="geometry" />
        </mxCell>
        <mxCell id="NvFsiqOb6EjPx9XSdER_-16" value="" style="points=[[0.145,0.145,0],[0.5,0,0],[0.855,0.145,0],[1,0.5,0],[0.855,0.855,0],[0.5,1,0],[0.145,0.855,0],[0,0.5,0]];shape=mxgraph.bpmn.event;html=1;verticalLabelPosition=bottom;labelBackgroundColor=#ffffff;verticalAlign=top;align=center;perimeter=ellipsePerimeter;outlineConnect=0;aspect=fixed;outline=eventNonint;symbol=timer;fillColor=#60a917;fontColor=#ffffff;strokeColor=#2D7600;" parent="NvFsiqOb6EjPx9XSdER_-1" vertex="1">
          <mxGeometry x="-16" y="92.5" width="50" height="50" as="geometry" />
        </mxCell>
        <mxCell id="NvFsiqOb6EjPx9XSdER_-17" value="Semanal" style="text;strokeColor=none;align=center;fillColor=none;html=1;verticalAlign=middle;whiteSpace=wrap;rounded=0;" parent="NvFsiqOb6EjPx9XSdER_-1" vertex="1">
          <mxGeometry x="-21" y="142.5" width="60" height="30" as="geometry" />
        </mxCell>
        <mxCell id="NvFsiqOb6EjPx9XSdER_-18" value="" style="shape=mxgraph.bpmn.data2;labelPosition=center;verticalLabelPosition=bottom;align=center;verticalAlign=top;size=14;html=1;bpmnTransferType=input;fillColor=#f5f5f5;strokeColor=#666666;fontColor=#333333;" parent="NvFsiqOb6EjPx9XSdER_-1" vertex="1">
          <mxGeometry x="240" y="270" width="40" height="50" as="geometry" />
        </mxCell>
        <mxCell id="NvFsiqOb6EjPx9XSdER_-19" value="&amp;nbsp;Baclog do produto" style="text;strokeColor=none;align=center;fillColor=none;html=1;verticalAlign=middle;whiteSpace=wrap;rounded=0;" parent="NvFsiqOb6EjPx9XSdER_-1" vertex="1">
          <mxGeometry x="220.5" y="330" width="78.5" height="30" as="geometry" />
        </mxCell>
        <mxCell id="NvFsiqOb6EjPx9XSdER_-20" style="edgeStyle=orthogonalEdgeStyle;rounded=0;orthogonalLoop=1;jettySize=auto;html=1;" parent="NvFsiqOb6EjPx9XSdER_-1" source="NvFsiqOb6EjPx9XSdER_-21" target="NvFsiqOb6EjPx9XSdER_-25" edge="1">
          <mxGeometry relative="1" as="geometry" />
        </mxCell>
        <mxCell id="NvFsiqOb6EjPx9XSdER_-21" value="&lt;p class=&quot;p1&quot;&gt;&lt;span style=&quot;background-color: transparent; color: light-dark(rgb(0, 0, 0), rgb(255, 255, 255));&quot;&gt;Montar o Sprint Backlog&lt;/span&gt;&lt;/p&gt;" style="points=[[0.25,0,0],[0.5,0,0],[0.75,0,0],[1,0.25,0],[1,0.5,0],[1,0.75,0],[0.75,1,0],[0.5,1,0],[0.25,1,0],[0,0.75,0],[0,0.5,0],[0,0.25,0]];shape=mxgraph.bpmn.task2;whiteSpace=wrap;rectStyle=rounded;size=10;html=1;container=1;expand=0;collapsible=0;taskMarker=abstract;" parent="NvFsiqOb6EjPx9XSdER_-1" vertex="1">
          <mxGeometry x="254" y="187" width="156" height="60" as="geometry" />
        </mxCell>
        <mxCell id="NvFsiqOb6EjPx9XSdER_-22" value="" style="shape=mxgraph.bpmn.data2;labelPosition=center;verticalLabelPosition=bottom;align=center;verticalAlign=top;size=15;html=1;bpmnTransferType=output;fillColor=#f5f5f5;strokeColor=#666666;fontColor=#333333;" parent="NvFsiqOb6EjPx9XSdER_-1" vertex="1">
          <mxGeometry x="352.5" y="92.5" width="37.5" height="47.5" as="geometry" />
        </mxCell>
        <mxCell id="NvFsiqOb6EjPx9XSdER_-23" style="edgeStyle=orthogonalEdgeStyle;rounded=0;orthogonalLoop=1;jettySize=auto;html=1;entryX=0.5;entryY=1;entryDx=0;entryDy=0;entryPerimeter=0;exitX=0.75;exitY=0;exitDx=0;exitDy=0;exitPerimeter=0;" parent="NvFsiqOb6EjPx9XSdER_-1" source="NvFsiqOb6EjPx9XSdER_-21" target="NvFsiqOb6EjPx9XSdER_-22" edge="1">
          <mxGeometry relative="1" as="geometry" />
        </mxCell>
        <mxCell id="NvFsiqOb6EjPx9XSdER_-24" value="&amp;nbsp;Baclog da sprint" style="text;strokeColor=none;align=center;fillColor=none;html=1;verticalAlign=middle;whiteSpace=wrap;rounded=0;" parent="NvFsiqOb6EjPx9XSdER_-1" vertex="1">
          <mxGeometry x="390" y="110" width="78.5" height="30" as="geometry" />
        </mxCell>
        <mxCell id="NvFsiqOb6EjPx9XSdER_-25" value="&lt;p class=&quot;p1&quot;&gt;&lt;span style=&quot;background-color: transparent; color: light-dark(rgb(0, 0, 0), rgb(255, 255, 255));&quot;&gt;Executar tarefas&amp;nbsp;&lt;/span&gt;&lt;span style=&quot;background-color: transparent; color: light-dark(rgb(0, 0, 0), rgb(255, 255, 255));&quot;&gt;da sprint&lt;/span&gt;&lt;/p&gt;" style="points=[[0.25,0,0],[0.5,0,0],[0.75,0,0],[1,0.25,0],[1,0.5,0],[1,0.75,0],[0.75,1,0],[0.5,1,0],[0.25,1,0],[0,0.75,0],[0,0.5,0],[0,0.25,0]];shape=mxgraph.bpmn.task2;whiteSpace=wrap;rectStyle=rounded;size=10;html=1;container=1;expand=0;collapsible=0;taskMarker=abstract;" parent="NvFsiqOb6EjPx9XSdER_-1" vertex="1">
          <mxGeometry x="470" y="187" width="130" height="60" as="geometry" />
        </mxCell>
        <mxCell id="NvFsiqOb6EjPx9XSdER_-26" value="" style="edgeStyle=orthogonalEdgeStyle;rounded=0;orthogonalLoop=1;jettySize=auto;html=1;" parent="NvFsiqOb6EjPx9XSdER_-1" source="NvFsiqOb6EjPx9XSdER_-12" target="NvFsiqOb6EjPx9XSdER_-27" edge="1">
          <mxGeometry relative="1" as="geometry">
            <mxPoint x="159" y="84" as="sourcePoint" />
            <mxPoint x="161" y="186" as="targetPoint" />
          </mxGeometry>
        </mxCell>
        <mxCell id="NvFsiqOb6EjPx9XSdER_-27" value="" style="points=[[0.25,0.25,0],[0.5,0,0],[0.75,0.25,0],[1,0.5,0],[0.75,0.75,0],[0.5,1,0],[0.25,0.75,0],[0,0.5,0]];shape=mxgraph.bpmn.gateway2;html=1;verticalLabelPosition=bottom;labelBackgroundColor=#ffffff;verticalAlign=top;align=center;perimeter=rhombusPerimeter;outlineConnect=0;outline=none;symbol=none;gwType=exclusive;fillColor=#ffe6cc;strokeColor=#d79b00;" parent="NvFsiqOb6EjPx9XSdER_-1" vertex="1">
          <mxGeometry x="674" y="390" width="50" height="47" as="geometry" />
        </mxCell>
        <mxCell id="NvFsiqOb6EjPx9XSdER_-28" style="edgeStyle=orthogonalEdgeStyle;rounded=0;orthogonalLoop=1;jettySize=auto;html=1;entryX=0.5;entryY=0;entryDx=0;entryDy=0;entryPerimeter=0;" parent="NvFsiqOb6EjPx9XSdER_-1" source="NvFsiqOb6EjPx9XSdER_-27" target="NvFsiqOb6EjPx9XSdER_-3" edge="1">
          <mxGeometry relative="1" as="geometry" />
        </mxCell>
        <mxCell id="NvFsiqOb6EjPx9XSdER_-29" style="edgeStyle=orthogonalEdgeStyle;rounded=0;orthogonalLoop=1;jettySize=auto;html=1;exitX=0;exitY=0.5;exitDx=0;exitDy=0;exitPerimeter=0;entryX=0.5;entryY=1;entryDx=0;entryDy=0;entryPerimeter=0;" parent="NvFsiqOb6EjPx9XSdER_-1" source="NvFsiqOb6EjPx9XSdER_-27" target="NvFsiqOb6EjPx9XSdER_-25" edge="1">
          <mxGeometry relative="1" as="geometry" />
        </mxCell>
        <mxCell id="NvFsiqOb6EjPx9XSdER_-30" style="edgeStyle=orthogonalEdgeStyle;rounded=0;orthogonalLoop=1;jettySize=auto;html=1;entryX=0.25;entryY=1;entryDx=0;entryDy=0;entryPerimeter=0;exitX=0;exitY=0;exitDx=40;exitDy=32;exitPerimeter=0;" parent="NvFsiqOb6EjPx9XSdER_-1" source="NvFsiqOb6EjPx9XSdER_-18" target="NvFsiqOb6EjPx9XSdER_-21" edge="1">
          <mxGeometry relative="1" as="geometry">
            <Array as="points">
              <mxPoint x="293" y="302" />
            </Array>
          </mxGeometry>
        </mxCell>
      </root>
    </mxGraphModel>
  </diagram>
</mxfile>
